<?xml version="1.0" standalone="no"?>
<svg xmlns="http://www.w3.org/2000/svg" viewBox="0 0 157.992 29" width="157.992" height="29"><g fill="#000000" color="#000000" transform="translate(0, 0) scale(0.6041667)"><svg width="48.0" height="48.000001" x="0.0" y="0.0" viewBox="0 0 48 48.000001"><g transform="translate(0,-1004.3622)"><g style="" transform="translate(7.9999998,-8)" fill="currentColor"><path style="" d="M 24 0 A 23.999998 23.999998 0 0 0 0 24 A 23.999998 23.999998 0 0 0 24 48 A 23.999998 23.999998 0 0 0 48 24 A 23.999998 23.999998 0 0 0 24 0 z M 29.617188 9 C 35.133298 9 39.613282 13.474569 39.613281 18.980469 C 39.613282 24.486369 35.133297 28.958984 29.617188 28.958984 C 24.101078 28.958984 19.617186 24.486469 19.617188 18.980469 C 19.617187 13.474669 24.101077 9 29.617188 9 z M 29.117188 10.023438 C 27.390783 10.118138 25.796036 10.690241 24.464844 11.619141 C 25.336289 14.132441 25.732092 16.513356 25.763672 18.785156 L 29.117188 18.785156 L 29.117188 10.023438 z M 30.117188 10.023438 L 30.117188 18.785156 L 33.470703 18.785156 C 33.502695 16.513356 33.898038 14.132541 34.769531 11.619141 C 33.438451 10.689841 31.844008 10.118438 30.117188 10.023438 z M 23.619141 12.292969 C 21.825335 13.895869 20.682483 16.203356 20.626953 18.785156 L 24.769531 18.785156 C 24.738727 16.732856 24.375745 14.576669 23.619141 12.292969 z M 35.613281 12.292969 C 34.856595 14.576669 34.492128 16.732756 34.460938 18.785156 L 38.605469 18.785156 C 38.549967 16.203556 37.406316 13.895869 35.613281 12.292969 z M 14.044922 18.746094 C 17.163647 18.746094 19.703106 21.281584 19.703125 24.396484 C 19.703106 27.511484 17.163647 30.046875 14.044922 30.046875 C 10.926197 30.046875 8.3867378 27.511484 8.3867188 24.396484 C 8.3867379 21.281584 10.926197 18.746094 14.044922 18.746094 z M 14.044922 19.746094 C 13.31334 19.746094 12.630692 19.926509 12.015625 20.224609 C 12.201664 20.697509 12.356823 21.202594 12.462891 21.746094 L 13.044922 21.746094 L 13.044922 22.746094 L 12.605469 22.746094 C 12.635732 23.072294 12.654297 23.405794 12.654297 23.746094 L 13.044922 23.746094 L 13.044922 24.746094 L 12.591797 24.746094 C 12.559718 25.090594 12.508991 25.421194 12.445312 25.746094 L 13.044922 25.746094 L 13.044922 26.746094 L 12.193359 26.746094 C 12.012586 27.314494 11.783912 27.834269 11.507812 28.292969 C 12.237728 28.766669 13.106567 29.046875 14.044922 29.046875 C 15.017616 29.046875 15.91638 28.750241 16.662109 28.244141 C 16.39825 27.796941 16.178274 27.295294 16.003906 26.746094 L 15.044922 26.746094 L 15.044922 25.746094 L 15.753906 25.746094 C 15.690384 25.421094 15.639396 25.090794 15.607422 24.746094 L 15.044922 24.746094 L 15.044922 23.746094 L 15.544922 23.746094 C 15.544922 23.405794 15.563487 23.072294 15.59375 22.746094 L 15.044922 22.746094 L 15.044922 21.746094 L 15.736328 21.746094 C 15.838802 21.220994 15.988732 20.732837 16.166016 20.273438 C 15.527876 19.946238 14.813779 19.746094 14.044922 19.746094 z M 20.658203 19.785156 C 20.866507 22.126156 21.973783 24.201934 23.632812 25.677734 C 24.286175 23.795134 24.692118 21.841056 24.767578 19.785156 L 20.658203 19.785156 z M 25.759766 19.785156 C 25.680042 22.081156 25.214641 24.258638 24.460938 26.335938 C 25.792862 27.266038 27.389201 27.838594 29.117188 27.933594 L 29.117188 19.785156 L 25.759766 19.785156 z M 30.117188 19.785156 L 30.117188 27.933594 C 31.845033 27.838894 33.437978 27.265938 34.769531 26.335938 C 34.015858 24.258638 33.551946 22.081256 33.472656 19.785156 L 30.117188 19.785156 z M 34.464844 19.785156 C 34.539909 21.840956 34.946316 23.795034 35.599609 25.677734 C 37.258528 24.201934 38.365986 22.126556 38.574219 19.785156 L 34.464844 19.785156 z M 11.152344 20.771484 C 10.083012 21.622584 9.3847746 22.920884 9.3847656 24.396484 C 9.3847734 25.668284 9.8938351 26.815797 10.71875 27.654297 C 10.873251 27.379997 11.01143 27.077994 11.132812 26.746094 L 11.042969 26.746094 L 11.042969 25.746094 L 11.421875 25.746094 C 11.493116 25.424394 11.55122 25.094694 11.587891 24.746094 L 11.042969 24.746094 L 11.042969 23.746094 L 11.652344 23.746094 C 11.652344 23.404394 11.635209 23.070294 11.601562 22.746094 L 11.044922 22.746094 L 11.044922 21.746094 L 11.435547 21.746094 C 11.359569 21.400594 11.263012 21.077784 11.152344 20.771484 z M 17.019531 20.839844 C 16.919454 21.126044 16.831969 21.426594 16.761719 21.746094 L 17.042969 21.746094 L 17.042969 22.746094 L 16.595703 22.746094 C 16.562063 23.070294 16.544922 23.404494 16.544922 23.746094 L 17.044922 23.746094 L 17.044922 24.746094 L 16.609375 24.746094 C 16.646046 25.094794 16.702198 25.424494 16.773438 25.746094 L 17.044922 25.746094 L 17.044922 26.6875 C 17.159582 27.0096 17.285824 27.304719 17.431641 27.574219 C 18.214406 26.742719 18.703117 25.631284 18.703125 24.396484 C 18.703116 22.959884 18.040557 21.691944 17.019531 20.839844 z M 22.974609 29.013672 L 22.972656 29.015625 C 25.095775 29.015625 26.893527 29.310078 28.402344 29.767578 L 28.402344 29.755859 L 29.068359 29.992188 C 29.076859 29.992188 29.08525 30.003906 29.09375 30.003906 C 29.498924 30.148806 29.883447 30.30335 30.242188 30.46875 C 30.269807 30.48175 30.298802 30.490906 30.326172 30.503906 C 30.700009 30.679406 31.054808 30.862334 31.378906 31.052734 C 31.394686 31.061734 31.410111 31.070078 31.425781 31.080078 L 31.626953 31.197266 L 31.626953 31.208984 C 31.810687 31.323384 31.997097 31.437788 32.164062 31.554688 C 33.115727 32.221488 33.797811 32.916319 34.25 33.511719 C 34.476095 33.809319 34.643745 34.082466 34.761719 34.322266 C 34.879698 34.561966 34.960938 34.743106 34.960938 35.003906 C 34.960938 35.264806 34.879693 35.445747 34.761719 35.685547 C 34.643745 35.925347 34.476095 36.196441 34.25 36.494141 C 33.797811 37.089441 33.115725 37.784472 32.164062 38.451172 C 31.997098 38.568072 31.810687 38.682575 31.626953 38.796875 L 31.626953 38.810547 L 31.425781 38.927734 C 31.410111 38.936734 31.394696 38.943125 31.378906 38.953125 C 31.053741 39.144425 30.6975 39.325853 30.322266 39.501953 C 30.300566 39.511953 30.277719 39.52125 30.255859 39.53125 C 29.892694 39.69925 29.502693 39.856806 29.091797 40.003906 C 29.083517 40.003906 29.076659 40.013672 29.068359 40.013672 L 28.402344 40.251953 L 28.402344 40.240234 C 26.893527 40.698234 25.095775 40.994141 22.972656 40.994141 C 20.837181 40.994141 19.0298 40.695022 17.515625 40.232422 L 17.515625 40.242188 L 16.845703 40.003906 C 16.829933 39.997906 16.816491 39.996328 16.800781 39.986328 C 16.422056 39.849128 16.062385 39.701975 15.724609 39.546875 C 15.687127 39.529875 15.648335 39.513094 15.611328 39.496094 C 15.271727 39.336394 14.95077 39.1724 14.652344 39 C 14.633475 38.989 14.610497 38.97975 14.591797 38.96875 L 14.570312 38.957031 C 14.553041 38.947031 14.536663 38.935781 14.519531 38.925781 L 14.345703 38.822266 L 14.345703 38.8125 C 14.151713 38.6925 13.956711 38.572119 13.78125 38.449219 C 12.829588 37.782519 12.1475 37.087487 11.695312 36.492188 C 11.469218 36.194487 11.299614 35.923394 11.181641 35.683594 C 11.063667 35.443794 10.982422 35.262753 10.982422 35.001953 C 10.982422 34.741153 11.063667 34.560113 11.181641 34.320312 C 11.299614 34.080512 11.469218 33.807366 11.695312 33.509766 C 12.147501 32.914366 12.829587 32.219434 13.78125 31.552734 C 13.956711 31.429834 14.151713 31.309453 14.345703 31.189453 L 14.345703 31.179688 L 14.494141 31.091797 C 14.526471 31.071797 14.558969 31.054156 14.591797 31.035156 C 14.916724 30.845056 15.271894 30.662981 15.646484 30.488281 C 16.01666 30.315581 16.415712 30.154806 16.835938 30.003906 L 16.847656 30.003906 L 17.517578 29.763672 L 17.517578 29.773438 C 19.031752 29.311438 20.839134 29.013672 22.974609 29.013672 z M 22.974609 30.013672 C 20.785388 30.013672 18.990246 30.341072 17.517578 30.826172 L 17.517578 39.179688 C 18.990161 39.665287 20.785619 39.994141 22.974609 39.994141 C 25.149954 39.994141 26.93727 39.668 28.404297 39.1875 L 28.404297 30.816406 C 26.937296 30.336406 25.149886 30.013672 22.974609 30.013672 z M 29.404297 31.240234 L 29.404297 38.765625 C 29.836011 38.584825 30.268439 38.405378 30.628906 38.205078 L 30.628906 31.800781 C 30.268422 31.600481 29.836017 31.420834 29.404297 31.240234 z M 16.517578 31.251953 C 16.106701 31.425153 15.693868 31.597663 15.347656 31.789062 L 15.347656 38.21875 C 15.693868 38.41015 16.106702 38.582659 16.517578 38.755859 L 16.517578 31.251953 z M 14.347656 32.378906 C 13.48459 32.984906 12.876536 33.611187 12.492188 34.117188 C 12.299392 34.370987 12.162573 34.595972 12.080078 34.763672 C 11.997583 34.931872 11.984375 35.068906 11.984375 35.003906 C 11.984375 34.939106 11.997583 35.076541 12.080078 35.244141 C 12.162573 35.411941 12.299391 35.634872 12.492188 35.888672 C 12.876538 36.394472 13.484582 37.021053 14.347656 37.626953 L 14.347656 32.378906 z M 31.628906 32.400391 L 31.628906 37.605469 C 32.475547 37.006369 33.075345 36.388572 33.455078 35.888672 C 33.647875 35.634872 33.784688 35.411841 33.867188 35.244141 C 33.949677 35.076941 33.960938 34.938906 33.960938 35.003906 C 33.960937 35.068706 33.949688 34.931372 33.867188 34.763672 C 33.784692 34.595972 33.647874 34.370987 33.455078 34.117188 C 33.075355 33.617287 32.475514 32.999491 31.628906 32.400391 z M 19.410156 34.21875 L 20.410156 34.21875 L 20.410156 34.503906 L 21.453125 34.503906 L 21.453125 34.21875 L 22.453125 34.21875 L 22.453125 34.503906 L 23.496094 34.503906 L 23.496094 34.21875 L 24.496094 34.21875 L 24.496094 34.503906 L 25.537109 34.503906 L 25.537109 34.21875 L 26.537109 34.21875 L 26.537109 34.503906 L 26.974609 34.503906 L 26.974609 35.503906 L 26.537109 35.503906 L 26.537109 35.787109 L 25.537109 35.787109 L 25.537109 35.503906 L 24.496094 35.503906 L 24.496094 35.787109 L 23.496094 35.787109 L 23.496094 35.503906 L 22.453125 35.503906 L 22.453125 35.787109 L 21.453125 35.787109 L 21.453125 35.503906 L 20.410156 35.503906 L 20.410156 35.787109 L 19.410156 35.787109 L 19.410156 35.503906 L 18.974609 35.503906 L 18.974609 34.503906 L 19.410156 34.503906 L 19.410156 34.21875 z " transform="translate(-7.9999998,1012.3622)" fill="currentColor" fill-opacity="1" fill-rule="evenodd" stroke="none"></path></g></g></svg></g><line x1="41" y1="1" x2="41" y2="28" stroke="#000000" stroke-linecap="round"></line><path fill="#000000" fill-rule="nonzero" d="M5.30 21Q2.50 21 1.25 19.61Q0 18.22 0 15.12L0 15.12L0 13.10L4.06 13.10L4.06 15.67Q4.06 17.21 5.04 17.21L5.04 17.21Q5.59 17.21 5.81 16.88Q6.02 16.56 6.02 15.79L6.02 15.79Q6.02 14.78 5.78 14.12Q5.54 13.46 5.17 13.02Q4.80 12.58 3.84 11.64L3.84 11.64L2.06 9.86Q0 7.85 0 5.40L0 5.40Q0 2.76 1.21 1.38Q2.42 0 4.75 0L4.75 0Q7.54 0 8.76 1.48Q9.98 2.95 9.98 6.10L9.98 6.10L5.78 6.10L5.76 4.68Q5.76 4.27 5.53 4.03Q5.30 3.79 4.90 3.79L4.90 3.79Q4.42 3.79 4.18 4.06Q3.94 4.32 3.94 4.78L3.94 4.78Q3.94 5.78 5.09 6.86L5.09 6.86L7.49 9.17Q8.33 9.98 8.88 10.72Q9.43 11.45 9.77 12.44Q10.10 13.44 10.10 14.81L10.10 14.81Q10.10 17.86 8.99 19.43Q7.87 21 5.30 21L5.30 21ZM11.40 24.31L11.40 3.24L15.67 3.24L15.67 4.18Q16.58 3.05 18.19 3.05L18.19 3.05Q20.23 3.05 21.04 4.42Q21.84 5.78 21.84 8.21L21.84 8.21L21.84 14.71Q21.84 16.78 21.60 18.08Q21.36 19.39 20.54 20.20Q19.73 21 18.07 21L18.07 21Q16.49 21 15.67 20.11L15.67 20.11L15.67 24.31L11.40 24.31ZM16.68 17.74Q17.26 17.74 17.42 17.21Q17.59 16.68 17.59 15.67L17.59 15.67L17.59 8.21Q17.59 7.30 17.42 6.82Q17.26 6.34 16.66 6.34L16.66 6.34Q15.67 6.34 15.67 8.16L15.67 8.16L15.67 15.86Q15.67 16.75 15.88 17.24Q16.08 17.74 16.68 17.74L16.68 17.74ZM28.51 21Q23.26 21 23.26 15.55L23.26 15.55L23.26 8.50Q23.26 6 24.66 4.52Q26.06 3.05 28.51 3.05L28.51 3.05Q30.96 3.05 32.36 4.52Q33.77 6 33.77 8.50L33.77 8.50L33.77 15.55Q33.77 21 28.51 21L28.51 21ZM28.51 17.76Q29.02 17.76 29.26 17.40Q29.50 17.04 29.50 16.42L29.50 16.42L29.50 7.82Q29.50 6.29 28.51 6.29L28.51 6.29Q27.53 6.29 27.53 7.82L27.53 7.82L27.53 16.42Q27.53 17.04 27.77 17.40Q28.01 17.76 28.51 17.76L28.51 17.76ZM35.33 20.81L35.33 3.24L39.53 3.24L39.53 5.18Q39.84 4.15 40.62 3.59Q41.40 3.02 42.55 3.02L42.55 3.02L42.55 6.53Q41.66 6.53 40.60 6.78Q39.53 7.03 39.53 7.37L39.53 7.37L39.53 20.81L35.33 20.81ZM47.21 21Q45.55 21 44.93 20.30Q44.30 19.61 44.30 18.07L44.30 18.07L44.30 7.10L43.13 7.10L43.13 3.91L44.30 3.91L44.30 0.19L48.38 0.19L48.38 3.91L49.58 3.91L49.58 7.10L48.38 7.10L48.38 16.97Q48.38 17.42 48.46 17.64Q48.53 17.86 48.84 17.86L48.84 17.86Q49.08 17.86 49.30 17.83Q49.51 17.81 49.58 17.81L49.58 17.81L49.58 20.69Q49.22 20.78 48.54 20.89Q47.86 21 47.21 21L47.21 21ZM60.62 20.81L56.59 20.81L56.59 0.19L60.84 0.19L62.74 10.06L62.74 0.19L66.72 0.19L66.72 20.81L62.69 20.81L60.62 10.49L60.62 20.81ZM73.39 21Q70.68 21 69.50 19.51Q68.33 18.02 68.33 15.07L68.33 15.07L68.33 8.02Q68.33 5.59 69.72 4.32Q71.11 3.05 73.61 3.05L73.61 3.05Q78.67 3.05 78.67 8.02L78.67 8.02L78.67 9.29Q78.67 11.21 78.62 12.41L78.62 12.41L72.53 12.41L72.53 15.82Q72.53 16.73 72.72 17.24Q72.91 17.76 73.54 17.76L73.54 17.76Q74.02 17.76 74.22 17.47Q74.42 17.18 74.46 16.81Q74.50 16.44 74.50 15.72L74.50 15.72L74.50 14.02L78.67 14.02L78.67 15.02Q78.67 18.10 77.48 19.55Q76.30 21 73.39 21L73.39 21ZM72.50 10.32L74.50 10.32L74.50 8.06Q74.50 6.17 73.56 6.17L73.56 6.17Q72.50 6.17 72.50 8.06L72.50 8.06L72.50 10.32ZM86.69 20.81L82.03 20.81L79.90 3.24L83.50 3.24L84.67 12.67L85.68 3.24L89.35 3.24L90.55 12.67L91.54 3.24L95.50 3.24L93.24 20.81L89.04 20.81L87.79 10.82L86.69 20.81ZM101.71 21Q96.50 21 96.50 15.72L96.50 15.72L96.53 14.33L100.73 14.33L100.75 16.39Q100.75 17.02 100.99 17.34Q101.23 17.66 101.78 17.66L101.78 17.66Q102.62 17.66 102.62 16.30L102.62 16.30Q102.62 15.29 102.23 14.71Q101.83 14.14 100.97 13.49L100.97 13.49L98.74 11.76Q97.58 10.87 97.08 9.92Q96.58 8.98 96.58 7.25L96.58 7.25Q96.58 5.90 97.28 4.96Q97.99 4.01 99.17 3.53Q100.34 3.05 101.78 3.05L101.78 3.05Q106.90 3.05 106.90 8.14L106.90 8.14L106.90 8.47L102.55 8.47L102.55 7.80Q102.55 7.18 102.35 6.73Q102.14 6.29 101.66 6.29L101.66 6.29Q101.23 6.29 101.00 6.54Q100.78 6.79 100.78 7.22L100.78 7.22Q100.78 8.18 101.52 8.71L101.52 8.71L104.11 10.61Q105.50 11.64 106.25 12.85Q106.99 14.06 106.99 15.91L106.99 15.91Q106.99 18.36 105.60 19.68Q104.21 21 101.71 21L101.71 21Z" transform="translate(51, 4.096)"></path></svg>